<?xml version="1.0" standalone="no"?>
<!DOCTYPE svg PUBLIC "-//W3C//DTD SVG 20010904//EN"
 "http://www.w3.org/TR/2001/REC-SVG-20010904/DTD/svg10.dtd">
<svg version="1.0" xmlns="http://www.w3.org/2000/svg"
 width="283.000000pt" height="178.000000pt" viewBox="0 0 283.000000 178.000000"
 preserveAspectRatio="xMidYMid meet">

<g transform="translate(0.000000,178.000000) scale(0.100000,-0.100000)"
fill="#000000" stroke="none">
<path d="M991 1586 c-9 -11 -8 -17 4 -29 20 -21 19 -34 -5 -47 -15 -8 -19 -17
-14 -35 5 -19 0 -27 -26 -40 -19 -10 -30 -22 -26 -30 2 -7 -7 -21 -21 -30 -30
-20 -29 -31 11 -180 50 -182 146 -346 252 -428 50 -39 171 -103 179 -95 3 2
-20 15 -50 27 -58 24 -71 40 -31 37 13 0 22 -4 20 -8 -4 -5 26 -20 46 -23 3 0
10 -3 15 -6 6 -3 25 -6 44 -8 19 -1 41 -7 49 -14 12 -10 11 -13 -9 -18 -13 -3
30 -4 96 -2 80 2 113 0 100 -6 -30 -14 45 -14 120 0 33 7 74 13 90 14 17 2 37
5 45 8 8 3 27 8 43 11 15 4 27 13 27 21 0 10 -10 15 -27 15 -16 0 -39 3 -52 7
-14 3 -22 2 -18 -3 3 -6 -16 -6 -49 0 -53 10 -65 18 -44 31 13 8 13 35 1 35
-6 0 -24 -13 -41 -29 -29 -26 -35 -28 -73 -19 -56 12 -117 40 -172 78 -64 44
-150 152 -175 219 -13 37 -18 44 -13 21 3 -19 7 -43 8 -54 1 -10 8 -24 16 -30
9 -6 39 -44 68 -84 39 -54 66 -79 101 -97 27 -14 51 -28 54 -33 3 -5 32 -17
65 -28 34 -10 61 -22 61 -26 0 -13 -27 -9 -90 13 -50 17 -66 19 -92 10 -24 -9
-33 -8 -39 1 -5 7 -13 14 -19 14 -5 1 -15 2 -21 3 -6 0 -9 8 -5 16 4 11 -1 15
-17 15 -26 0 -65 25 -56 35 4 3 14 -1 22 -10 9 -8 23 -15 33 -15 14 0 15 2 3
16 -15 19 -84 64 -96 64 -5 0 -2 -4 6 -9 11 -7 9 -10 -8 -16 -13 -4 -28 -1
-36 5 -11 9 -15 9 -15 1 0 -14 -40 -14 -60 -1 -13 9 -13 11 0 20 9 6 18 6 24
0 6 -6 16 -10 24 -10 12 0 12 3 1 18 -13 16 -12 16 6 1 33 -26 46 -32 43 -17
-2 7 -16 21 -33 30 -20 11 -24 17 -13 18 9 0 20 -4 23 -10 3 -5 13 -10 20 -10
23 0 6 29 -27 46 -23 12 -27 18 -18 29 17 20 -4 53 -32 51 -30 -3 -58 11 -58
29 0 7 -4 17 -10 20 -11 7 -2 -23 13 -43 15 -19 4 -23 -31 -10 -23 9 -35 22
-41 45 -5 18 -18 45 -29 61 -13 17 -17 33 -12 41 10 17 31 5 24 -13 -3 -8 -1
-17 5 -21 7 -4 11 4 11 20 0 15 4 24 10 20 12 -7 8 31 -5 42 -4 5 -6 3 -2 -2
10 -19 -8 -35 -31 -28 -29 7 -25 34 6 48 18 8 21 15 16 37 -4 21 -2 28 10 28
8 0 30 8 48 18 18 10 39 17 47 14 8 -3 11 0 7 7 -4 6 -1 11 7 11 8 0 29 3 46
6 l31 7 2 -49 1 -49 6 60 c7 65 9 67 76 51 24 -6 27 -5 12 4 -9 6 -15 15 -12
20 3 4 -8 13 -24 18 -25 9 -30 8 -34 -9 -6 -23 -40 -37 -122 -48 -34 -5 -77
-17 -94 -26 -19 -9 -41 -13 -53 -9 -13 4 -24 1 -29 -7 -7 -11 -12 -11 -26 -2
-10 6 -17 16 -15 23 1 7 -3 10 -10 8 -7 -3 -15 -15 -18 -29 -5 -21 -7 -21 -13
-6 -4 11 1 25 13 37 24 24 46 26 54 5 3 -8 12 -15 21 -15 12 0 14 4 6 19 -9
17 -4 20 59 37 55 14 67 20 59 31 -6 7 -15 10 -20 7 -5 -3 -17 0 -26 5 -16 9
-15 10 6 11 19 0 21 3 12 14 -9 10 -20 12 -42 6 -18 -5 -27 -5 -24 1 4 5 15 9
25 9 10 0 20 5 22 11 2 7 13 9 25 5 15 -5 20 -12 16 -23 -5 -13 -2 -15 12 -9
11 4 22 2 27 -6 11 -18 10 -30 -2 -23 -5 3 -10 1 -10 -6 0 -8 10 -9 31 -5 17
3 50 6 73 7 35 0 38 2 18 9 -12 5 -39 21 -59 35 -21 14 -46 25 -56 25 -10 0
-21 9 -24 20 -4 15 -14 20 -39 20 -31 0 -34 3 -34 29 0 17 -4 33 -10 36 -6 3
-7 -1 -4 -9 4 -12 0 -16 -16 -16 -19 0 -20 2 -10 15 7 8 10 15 7 15 -2 0 -10
-6 -16 -14z m46 -162 c-3 -3 -12 -4 -19 -1 -8 3 -5 6 6 6 11 1 17 -2 13 -5z
m-5 -159 c0 -5 -5 -11 -10 -13 -5 -1 -9 4 -9 13 0 9 4 14 9 13 5 -2 10 -8 10
-13z m-58 -147 c2 -15 7 -31 10 -36 3 -5 8 -24 11 -43 3 -18 24 -57 46 -86 21
-29 39 -56 39 -61 0 -4 28 -34 61 -65 34 -31 55 -57 48 -57 -8 0 -34 19 -57
42 -59 57 -172 232 -158 245 3 3 -4 23 -15 45 -11 21 -17 43 -13 49 9 15 22
-1 28 -33z m227 -131 c-10 -9 -11 -8 -5 6 3 10 9 15 12 12 3 -3 0 -11 -7 -18z
m-38 -23 c-3 -7 5 -25 16 -40 27 -34 21 -41 -17 -18 -35 20 -55 57 -40 72 14
14 48 3 41 -14z m122 -164 c3 -6 -1 -7 -9 -4 -18 7 -21 14 -7 14 6 0 13 -4 16
-10z m245 -85 c0 -8 -7 -15 -16 -15 -14 0 -14 3 -4 15 7 8 14 15 16 15 2 0 4
-7 4 -15z m27 -10 c0 -8 -4 -15 -9 -15 -10 0 -11 14 -1 23 9 10 10 9 10 -8z
m218 5 c4 -6 -12 -10 -39 -10 -25 0 -46 5 -46 10 0 6 18 10 39 10 22 0 43 -4
46 -10z m-190 -10 c3 -5 1 -10 -4 -10 -6 0 -11 5 -11 10 0 6 2 10 4 10 3 0 8
-4 11 -10z m322 4 c-3 -3 -12 -4 -19 -1 -8 3 -5 6 6 6 11 1 17 -2 13 -5z"/>
<path d="M1185 1400 c3 -5 8 -10 11 -10 2 0 4 5 4 10 0 6 -5 10 -11 10 -5 0
-7 -4 -4 -10z"/>
<path d="M1030 1351 c0 -5 7 -12 16 -15 14 -5 15 -4 4 9 -14 17 -20 19 -20 6z"/>
<path d="M1220 1280 c0 -11 4 -20 9 -20 5 0 7 9 4 20 -3 11 -7 20 -9 20 -2 0
-4 -9 -4 -20z"/>
<path d="M1263 1190 c0 -25 2 -35 4 -22 2 12 2 32 0 45 -2 12 -4 2 -4 -23z"/>
<path d="M1080 1213 c0 -1 8 -7 18 -12 13 -7 19 -6 19 2 0 7 -9 13 -19 13 -10
0 -18 -1 -18 -3z"/>
<path d="M1200 1141 c0 -11 5 -23 10 -26 6 -3 10 3 10 14 0 11 -4 23 -10 26
-5 3 -10 -3 -10 -14z"/>
<path d="M1120 1139 c0 -5 4 -7 10 -4 5 3 7 0 4 -8 -6 -17 11 -31 27 -22 7 5
4 14 -7 26 -19 21 -34 25 -34 8z"/>
<path d="M1068 1123 c-3 -14 -1 -27 8 -34 10 -8 11 -15 4 -24 -8 -9 -5 -14 10
-18 17 -4 19 -1 16 18 -3 18 -1 22 10 18 16 -6 18 6 4 27 -9 13 -12 13 -24 -3
-14 -18 -15 -17 -18 10 -3 26 -4 26 -10 6z"/>
<path d="M1254 1128 c-4 -6 -3 -8 4 -4 6 3 13 -2 15 -11 4 -14 5 -13 6 5 1 23
-13 30 -25 10z"/>
<path d="M1368 663 c7 -3 16 -2 19 1 4 3 -2 6 -13 5 -11 0 -14 -3 -6 -6z"/>
<path d="M1493 643 c9 -2 25 -2 35 0 9 3 1 5 -18 5 -19 0 -27 -2 -17 -5z"/>
<path d="M1172 551 c-32 -16 -32 -17 -12 -34 18 -15 20 -29 20 -141 0 -100 -3
-128 -16 -140 -14 -15 -10 -16 43 -16 53 0 56 1 33 13 -25 12 -25 14 -30 174
l-5 161 -33 -17z"/>
<path d="M1737 553 c-26 -14 -27 -16 -13 -32 13 -14 16 -43 16 -149 0 -114 -2
-132 -17 -141 -14 -8 -3 -10 42 -10 46 0 55 2 38 9 -17 7 -23 18 -23 39 0 43
19 49 44 15 49 -67 59 -74 96 -65 31 7 33 8 13 15 -26 8 -93 81 -93 100 0 17
58 55 86 57 11 1 -6 5 -36 9 -30 4 -59 3 -64 -1 -6 -6 -3 -9 7 -9 26 0 20 -15
-18 -44 l-35 -27 0 125 c0 70 -3 126 -7 125 -5 -1 -21 -8 -36 -16z"/>
<path d="M893 522 c14 -15 17 -42 17 -150 0 -114 -2 -132 -17 -141 -14 -8 -2
-10 47 -11 59 0 63 1 40 13 -22 11 -25 20 -28 75 l-3 62 35 0 c25 0 39 -6 50
-22 l16 -22 0 29 c0 17 3 40 6 53 4 12 2 22 -4 22 -5 0 -12 -9 -15 -20 -4 -16
-14 -20 -46 -20 l-41 0 0 65 0 65 50 0 c38 0 54 -5 70 -22 16 -17 20 -19 20
-6 0 9 3 23 6 32 5 14 -8 16 -106 16 -109 0 -112 -1 -97 -18z"/>
<path d="M1345 400 c-12 -4 -26 -15 -33 -23 -22 -26 7 -31 34 -6 20 18 29 21
42 13 9 -6 17 -22 17 -34 0 -19 -9 -26 -49 -40 -63 -21 -82 -53 -47 -81 16
-13 30 -17 45 -12 12 4 35 7 51 6 41 -3 75 5 75 17 0 6 -9 10 -20 10 -18 0
-20 7 -20 68 0 40 -5 73 -12 80 -14 14 -53 15 -83 2z m63 -131 c-2 -20 -9 -24
-38 -24 -49 0 -54 30 -8 49 38 16 51 9 46 -25z"/>
<path d="M1546 397 c-32 -24 -17 -67 34 -97 53 -31 63 -56 25 -66 -19 -5 -35
0 -56 15 l-29 22 0 -25 c0 -20 6 -25 39 -31 60 -10 96 11 96 54 0 31 -5 37
-48 59 -33 16 -47 29 -45 40 4 24 46 27 69 6 24 -21 34 -13 19 15 -13 25 -75
29 -104 8z"/>
</g>
</svg>
