<?xml version="1.0" encoding="UTF-8"?>
<svg version="1.1" xmlns="http://www.w3.org/2000/svg" width="3840" height="2160">
<path d="M0 0 C6.364437 3.16918027 12.812206 6.14598559 19.2769165 9.10464478 C31.55260507 14.75007744 43.69099821 20.65996035 55.82501221 26.60256958 C66.09456867 31.629746 76.38473088 36.58486636 86.7769165 41.35464478 C98.02873335 46.51897451 109.15894384 51.9095661 120.2769165 57.35464478 C132.5256748 63.35345882 144.80750044 69.24124722 157.20269775 74.93276978 C167.77464103 79.80740564 178.22713801 84.91710671 188.68426514 90.03219604 C198.6267413 94.89311399 208.59393252 99.6738042 218.6519165 104.29214478 C230.80472481 109.8735408 242.81715866 115.7216845 254.82666016 121.60339355 C265.09566701 126.63029317 275.38529021 131.58512308 285.7769165 136.35464478 C297.02873335 141.51897451 308.15894384 146.9095661 319.2769165 152.35464478 C331.5256748 158.35345882 343.80750044 164.24124722 356.20269775 169.93276978 C366.77464103 174.80740564 377.22713801 179.91710671 387.68426514 185.03219604 C397.6267413 189.89311399 407.59393252 194.6738042 417.6519165 199.29214478 C429.80472481 204.8735408 441.81715866 210.7216845 453.82666016 216.60339355 C464.09566701 221.63029317 474.38529021 226.58512308 484.7769165 231.35464478 C496.88900482 236.91381967 508.8592772 242.74229147 520.82720947 248.60366821 C531.09603313 253.63047556 541.38547665 258.58520865 551.7769165 263.35464478 C563.02873335 268.51897451 574.15894384 273.9095661 585.2769165 279.35464478 C597.5256748 285.35345882 609.80750044 291.24124722 622.20269775 296.93276978 C631.96352513 301.43340679 641.621953 306.13214827 651.2769165 310.85464478 C662.39671239 316.29296212 673.53862181 321.66521303 684.7769165 326.85464478 C685.90573242 327.37639282 687.03454834 327.89814087 688.1975708 328.43569946 C692.3838915 330.3687501 696.57119795 332.29964714 700.75982666 334.22769165 C738.74184725 351.76677015 771.24183076 377.01264318 786.66214752 417.159338 C791.37020132 430.32731365 794.863795 443.64850667 797.9175415 457.28042603 C798.39243922 459.36253123 798.86831897 461.44441263 799.34507751 463.52609253 C800.37316691 468.02385119 801.39481969 472.5230044 802.41140747 477.02337646 C804.0752652 484.38814333 805.75421955 491.74942259 807.43536377 499.11026001 C808.02936687 501.7120084 808.6233339 504.31376497 809.21720886 506.9155426 C809.44144534 507.89787706 809.44144534 507.89787706 809.67021185 508.90005666 C810.75500062 513.65325789 811.83768689 518.40693535 812.91950989 523.16081238 C817.59553932 543.70639849 822.30722429 564.24362001 827.03863525 584.77651978 C827.21391613 585.53723148 827.389197 586.29794319 827.56978941 587.08170676 C829.18549053 594.09365363 830.80155015 601.10551784 832.41807747 608.11727428 C835.00969639 619.35853934 837.59951309 630.6002183 840.18804932 641.8421936 C840.37391153 642.64938563 840.55977375 643.45657767 840.75126815 644.28823006 C841.5043212 647.55873447 842.25736296 650.82924148 843.01038635 654.09975272 C844.9030167 662.31976855 846.79594205 670.53971644 848.68888259 678.75966084 C853.31356293 698.84203809 857.93784876 718.92450619 862.56207275 739.00698853 C862.74202246 739.78848935 862.92197217 740.56999018 863.10737491 741.37517285 C864.74162382 748.47252818 866.37586987 755.56988416 868.01011181 762.6672411 C870.55663278 773.72653858 873.10316987 784.78583235 875.64971924 795.84512329 C875.83025349 796.62915712 876.01078774 797.41319095 876.19679272 798.22098339 C877.10872826 802.18138565 878.02066408 806.14178785 878.93260002 810.10219002 C880.5734272 817.22805905 882.21425196 824.35392865 883.85507691 831.4797982 C884.76652334 835.43808041 885.67796993 839.39636259 886.5894165 843.35464478 C886.95399984 844.93797811 887.31858317 846.52131144 887.6831665 848.10464478 C887.95386963 849.28026978 887.95386963 849.28026978 888.2300415 850.47964478 C889.32379097 855.22964245 889.32379097 855.22964245 890.41754043 859.97964013 C890.78212733 861.56298896 891.14671424 863.14633779 891.51130116 864.72968662 C892.42270492 868.68778281 893.33410857 872.64587903 894.24551201 876.6039753 C895.88678861 883.73180705 897.52806594 890.85963863 899.16934717 897.98746932 C900.08166897 901.94954201 900.99399016 905.91161484 901.90631104 909.87368774 C902.08691645 910.65802995 902.26752186 911.44237216 902.45360017 912.25048232 C904.99267006 923.27728734 907.5317059 934.3041002 910.07071996 945.33091807 C911.69934021 952.40393293 913.32797063 959.47694544 914.956604 966.54995728 C915.13594404 967.32881617 915.31528407 968.10767507 915.50005865 968.91013575 C920.7960536 991.91018264 926.09256893 1014.91010964 931.38945031 1037.9099524 C932.76459044 1043.88103113 934.13969294 1049.85211853 935.51477051 1055.82321167 C935.80477782 1057.0825301 935.80477782 1057.0825301 936.10064387 1058.3672893 C937.06963728 1062.5750218 938.03862562 1066.78275546 939.00761032 1070.99048996 C940.85174432 1078.99845637 942.69595035 1087.00640618 944.54034424 1095.01431274 C945.06116535 1097.27563177 945.58198477 1099.53695118 946.10280371 1101.7982707 C946.44655037 1103.29074409 946.79030576 1104.78321547 947.13406992 1106.27568483 C948.98230619 1114.29992712 950.82983693 1122.32433045 952.67529297 1130.34921265 C953.33835663 1133.23221806 954.00147156 1136.11521167 954.66461182 1138.99819946 C954.8288532 1139.71229461 954.99309459 1140.42638976 955.16231298 1141.16212416 C957.33567063 1150.61018737 959.51658965 1160.05647276 961.70455563 1169.50116384 C963.29004859 1176.34533681 964.87252446 1183.19020293 966.45304477 1190.03552592 C967.5813567 1194.92120962 968.71366111 1199.80594409 969.84906864 1204.68998337 C970.55109955 1207.71446338 971.24910205 1210.73986291 971.94603395 1213.76552153 C972.26745774 1215.15731232 972.59049135 1216.54873259 972.91535521 1217.93972445 C982.25473339 1257.95063286 979.16410969 1297.13684421 957.53863525 1332.57730103 C952.11033519 1341.16665483 945.7660194 1348.94153451 939.237854 1356.71011353 C936.0643057 1360.48802191 932.99469493 1364.33634305 929.9644165 1368.22964478 C926.11057241 1373.16995596 922.19434714 1378.04992109 918.2144165 1382.88980103 C910.69518318 1392.03579156 903.2361691 1401.22465555 895.94805908 1410.55606079 C891.29842871 1416.4951482 886.53079794 1422.33666358 881.76519775 1428.18276978 C879.41970117 1431.06076932 877.09090104 1433.95120313 874.7769165 1436.85464478 C871.92469098 1440.43343722 869.04339175 1443.98727195 866.1519165 1447.53433228 C861.47697275 1453.26979568 856.83161009 1459.0230984 852.2769165 1464.85464478 C845.67703179 1473.30086137 838.88877622 1481.59216716 832.11090088 1489.8956604 C826.44492444 1496.839977 820.79564778 1503.79243731 815.2769165 1510.85464478 C808.67679603 1519.30068386 801.88878177 1527.59216036 795.11090088 1535.8956604 C788.98912926 1543.39860729 782.90777344 1550.92558359 776.94708252 1558.55728149 C772.29781864 1564.49599294 767.53046782 1570.33706855 762.76519775 1576.18276978 C760.41970117 1579.06076932 758.09090104 1581.95120313 755.7769165 1584.85464478 C752.92469098 1588.43343722 750.04339175 1591.98727195 747.1519165 1595.53433228 C742.47697275 1601.26979568 737.83161009 1607.0230984 733.2769165 1612.85464478 C726.67703179 1621.30086137 719.88877622 1629.59216716 713.11090088 1637.8956604 C706.98912926 1645.39860729 700.90777344 1652.92558359 694.94708252 1660.55728149 C690.29781864 1666.49599294 685.53046782 1672.33706855 680.76519775 1678.18276978 C678.41970117 1681.06076932 676.09090104 1683.95120313 673.7769165 1686.85464478 C670.92469098 1690.43343722 668.04339175 1693.98727195 665.1519165 1697.53433228 C660.47697275 1703.26979568 655.83161009 1709.0230984 651.2769165 1714.85464478 C644.67703179 1723.30086137 637.88877622 1731.59216716 631.11090088 1739.8956604 C625.44492444 1746.839977 619.79564778 1753.79243731 614.2769165 1760.85464478 C607.67679603 1769.30068386 600.88878177 1777.59216036 594.11090088 1785.8956604 C587.98912926 1793.39860729 581.90777344 1800.92558359 575.94708252 1808.55728149 C571.29781864 1814.49599294 566.53046782 1820.33706855 561.76519775 1826.18276978 C559.41970117 1829.06076932 557.09090104 1831.95120313 554.7769165 1834.85464478 C551.92469098 1838.43343722 549.04339175 1841.98727195 546.1519165 1845.53433228 C541.47697275 1851.26979568 536.83161009 1857.0230984 532.2769165 1862.85464478 C525.67703179 1871.30086137 518.88877622 1879.59216716 512.11090088 1887.8956604 C505.98912926 1895.39860729 499.90777344 1902.92558359 493.94708252 1910.55728149 C489.29781864 1916.49599294 484.53046782 1922.33706855 479.76519775 1928.18276978 C477.41970117 1931.06076932 475.09090104 1933.95120313 472.7769165 1936.85464478 C469.92436622 1940.43384471 467.04272472 1943.98807281 464.15093994 1947.53555298 C459.39200668 1953.37399528 454.66630757 1959.23313563 450.0269165 1965.16714478 C422.56364434 2000.23102594 391.2871336 2025.79540533 345.80146134 2032.23831105 C333.32628806 2033.70933778 320.62285899 2033.27209611 308.07679252 2033.24004744 C303.75684882 2033.23237057 299.43693686 2033.24224325 295.11699778 2033.24977744 C287.56111578 2033.2605682 280.00529819 2033.26031121 272.4494133 2033.25263596 C261.21330128 2033.24125354 249.97724325 2033.24710782 238.74113156 2033.25626088 C218.66971303 2033.27203349 198.5983232 2033.27069878 178.52690196 2033.26202414 C160.96244107 2033.25447046 143.3979907 2033.25251064 125.83352852 2033.25609207 C124.66737013 2033.25632123 123.50121175 2033.25655038 122.29971523 2033.25678648 C117.56562901 2033.25772053 112.8315428 2033.25867574 108.09745658 2033.25966577 C63.71059056 2033.2688377 19.32374278 2033.26053032 -25.06312043 2033.24437508 C-64.47981386 2033.23013789 -103.89647821 2033.23141353 -143.31317139 2033.24575806 C-187.62158973 2033.26182898 -231.92999195 2033.26818811 -276.2384128 2033.25892127 C-280.96344562 2033.25795914 -285.68847845 2033.25702062 -290.41351128 2033.25609207 C-291.57689316 2033.25585484 -292.74027505 2033.25561761 -293.93891093 2033.25537319 C-311.4910529 2033.25196377 -329.04318321 2033.25594599 -346.59532356 2033.26353073 C-366.55626587 2033.27211349 -386.51717505 2033.26995331 -406.47811324 2033.2536885 C-417.64336327 2033.2448903 -428.80854152 2033.24428922 -439.97378966 2033.25562702 C-447.43853858 2033.26236988 -454.90323013 2033.25813916 -462.36797056 2033.24511272 C-466.61643294 2033.23799973 -470.86475307 2033.2354873 -475.1132108 2033.24633066 C-514.47921461 2033.33937932 -548.50677208 2025.94920694 -580.2230835 2001.85464478 C-581.17956787 2001.13792603 -582.13605225 2000.42120728 -583.121521 1999.68276978 C-583.81503662 1999.07948853 -584.50855225 1998.47620728 -585.2230835 1997.85464478 C-585.2230835 1997.19464478 -585.2230835 1996.53464478 -585.2230835 1995.85464478 C-586.10286865 1995.46019165 -586.10286865 1995.46019165 -587.00042725 1995.05776978 C-594.0530053 1991.24020556 -598.92169001 1983.85520917 -603.73309326 1977.62319946 C-607.46890254 1972.78615571 -611.32055642 1968.05794876 -615.2230835 1963.35464478 C-619.91656329 1957.68911627 -624.52098496 1951.96891381 -629.03948975 1946.16323853 C-632.68793581 1941.49365304 -636.44327292 1936.91827998 -640.2230835 1932.35464478 C-644.93612198 1926.66320015 -649.56761351 1920.9213983 -654.10980225 1915.09292603 C-657.59162218 1910.63375312 -661.14550706 1906.23725453 -664.7230835 1901.85464478 C-668.75519178 1896.91522352 -672.74119202 1891.94645242 -676.6605835 1886.91714478 C-681.34373454 1880.91169227 -686.17390004 1875.03614169 -691.03143311 1869.17129517 C-695.11560083 1864.22930142 -699.10199871 1859.22238874 -703.03948975 1854.16323853 C-706.68793581 1849.49365304 -710.44327292 1844.91827998 -714.2230835 1840.35464478 C-718.93612198 1834.66320015 -723.56761351 1828.9213983 -728.10980225 1823.09292603 C-731.59162218 1818.63375312 -735.14550706 1814.23725453 -738.7230835 1809.85464478 C-742.75519178 1804.91522352 -746.74119202 1799.94645242 -750.6605835 1794.91714478 C-755.34373454 1788.91169227 -760.17390004 1783.03614169 -765.03143311 1777.17129517 C-769.11560083 1772.22930142 -773.10199871 1767.22238874 -777.03948975 1762.16323853 C-780.6879348 1757.49365434 -784.44323064 1752.91824397 -788.2230835 1748.35464478 C-793.02991646 1742.55093093 -797.75005098 1736.6922624 -802.38446045 1730.75015259 C-805.89854098 1726.24910272 -809.49679919 1721.82262959 -813.12542725 1717.41323853 C-815.09373336 1715.01241822 -817.03815094 1712.5948994 -818.9730835 1710.16714478 C-821.91176256 1706.48065076 -824.87799656 1702.81795769 -827.85687256 1699.16397095 C-832.52913023 1693.43236922 -837.17127891 1687.68249225 -841.7230835 1681.85464478 C-847.7823062 1674.10034155 -854.00041026 1666.47796661 -860.2230835 1658.85464478 C-866.90539031 1650.66823138 -873.55699627 1642.46558087 -880.06390381 1634.13882446 C-885.68357735 1626.96330764 -891.45994228 1619.91499949 -897.2230835 1612.85464478 C-903.90539031 1604.66823138 -910.55699627 1596.46558087 -917.06390381 1588.13882446 C-922.68357735 1580.96330764 -928.45994228 1573.91499949 -934.2230835 1566.85464478 C-940.90539031 1558.66823138 -947.55699627 1550.46558087 -954.06390381 1542.13882446 C-959.68357735 1534.96330764 -965.45994228 1527.91499949 -971.2230835 1520.85464478 C-977.90539031 1512.66823138 -984.55699627 1504.46558087 -991.06390381 1496.13882446 C-996.68357735 1488.96330764 -1002.45994228 1481.91499949 -1008.2230835 1474.85464478 C-1014.88349496 1466.69505511 -1021.51169076 1458.51930822 -1027.98919678 1450.21353149 C-1031.65753865 1445.52995123 -1035.42889199 1440.9366003 -1039.2230835 1436.35464478 C-1043.93605782 1430.66314537 -1048.56761194 1424.92140032 -1053.10980225 1419.09292603 C-1056.59162218 1414.63375312 -1060.14550706 1410.23725453 -1063.7230835 1405.85464478 C-1067.75519178 1400.91522352 -1071.74119202 1395.94645242 -1075.6605835 1390.91714478 C-1079.76246978 1385.65707883 -1083.96914241 1380.49237978 -1088.2230835 1375.35464478 C-1093.85658862 1368.54463716 -1099.3890931 1361.67096594 -1104.79730225 1354.68081665 C-1106.32852437 1352.7195938 -1107.88433104 1350.77942366 -1109.4418335 1348.83901978 C-1130.14431469 1322.79797226 -1141.21881468 1293.32082158 -1141.5980835 1259.97964478 C-1141.63546631 1258.80273071 -1141.67284912 1257.62581665 -1141.71136475 1256.41323853 C-1141.94592045 1231.4721489 -1133.64180048 1206.13808095 -1128.00305557 1181.97698212 C-1126.86882741 1177.11113093 -1125.74070463 1172.24386535 -1124.61248779 1167.37661743 C-1124.25863778 1165.85010181 -1124.25863778 1165.85010181 -1123.89763927 1164.2927475 C-1123.40879199 1162.18372511 -1122.9199743 1160.07469587 -1122.43118477 1157.9656601 C-1121.66920082 1154.67865867 -1120.90662214 1151.39179563 -1120.14396667 1148.10494995 C-1116.02582359 1130.35110323 -1111.93733734 1112.59050748 -1107.85980225 1094.82730103 C-1107.70179193 1094.13896297 -1107.54378162 1093.45062492 -1107.38098311 1092.74142814 C-1105.42884079 1084.23702443 -1103.47754439 1075.73242673 -1101.52646667 1067.22777873 C-1098.52303656 1054.13632811 -1095.51747252 1041.04536713 -1092.51211524 1027.95435882 C-1092.01221605 1025.77682491 -1091.51233613 1023.59928657 -1091.01246071 1021.42174721 C-1084.32085754 992.27230329 -1077.61815408 963.12541871 -1070.9105835 933.97964478 C-1070.37765351 931.6638594 -1069.84472505 929.34807367 -1069.3117981 927.0322876 C-1065.08466661 908.66390934 -1060.85671818 890.29571914 -1056.62854004 871.92758179 C-1052.86798096 855.59086309 -1049.10775383 839.25406803 -1045.3480835 822.91714478 C-1045.08089508 821.75615391 -1044.81370667 820.59516304 -1044.53842163 819.39899063 C-1035.23079943 778.954749 -1025.94392795 738.50576562 -1016.66433716 698.05508423 C-1010.16879864 669.74093993 -1003.66782188 641.42806712 -997.15069509 613.11888456 C-996.67682772 611.06045963 -996.20299421 609.0020269 -995.72916985 606.94359207 C-992.62248365 593.44736899 -989.51474031 579.95139126 -986.40287304 566.45636177 C-984.91126764 559.98771833 -983.42047516 553.51888767 -981.93011475 547.04995728 C-981.64162218 545.79775768 -981.35312962 544.54555809 -981.05589485 543.25541306 C-977.37203198 527.25953915 -973.71833284 511.25720771 -970.10495949 495.24526405 C-969.43265006 492.2676619 -968.75900992 489.29036435 -968.08482361 486.31318665 C-967.86958573 485.36262296 -967.65434786 484.41205927 -967.43258762 483.43269062 C-967.00920431 481.56301271 -966.58576569 479.69334733 -966.16226864 477.82369518 C-965.17186328 473.44760758 -964.18560954 469.07067338 -963.20962524 464.69134521 C-953.14408971 419.53684715 -938.1730631 377.91907145 -897.2230835 351.85464478 C-880.56108038 341.61628233 -862.68734935 333.47818068 -844.94525146 325.32461548 C-834.1229688 320.3341143 -823.42267261 315.10200801 -812.7230835 309.85464478 C-800.15531843 303.69223299 -787.55967581 297.63201287 -774.83636475 291.79605103 C-764.72287374 287.13556511 -754.72329173 282.25239604 -744.7230835 277.35464478 C-732.52127747 271.37869984 -720.28655238 265.51457223 -707.93792725 259.84683228 C-697.79151103 255.16748853 -687.75727351 250.26895801 -677.7230835 245.35464478 C-665.52126631 239.37872129 -653.28655322 233.51457261 -640.93792725 227.84683228 C-630.79151103 223.16748853 -620.75727351 218.26895801 -610.7230835 213.35464478 C-598.52126631 207.37872129 -586.28655322 201.51457261 -573.93792725 195.84683228 C-563.79151103 191.16748853 -553.75727351 186.26895801 -543.7230835 181.35464478 C-531.52126631 175.37872129 -519.28655322 169.51457261 -506.93792725 163.84683228 C-496.79151103 159.16748853 -486.75727351 154.26895801 -476.7230835 149.35464478 C-464.52126631 143.37872129 -452.28655322 137.51457261 -439.93792725 131.84683228 C-428.93141173 126.77082628 -418.05544763 121.4355445 -407.17077637 116.10461426 C-396.94438931 111.09848018 -386.69777155 106.16436696 -376.3480835 101.41714478 C-364.71439229 96.07982408 -353.21501995 90.489147 -341.7230835 84.85464478 C-329.1551433 78.69257737 -316.55968717 72.63201808 -303.83636475 66.79605103 C-293.72287374 62.13556511 -283.72329173 57.25239604 -273.7230835 52.35464478 C-261.52127747 46.37869984 -249.28655238 40.51457223 -236.93792725 34.84683228 C-226.791506 30.16748621 -216.75734726 25.26881672 -206.7230835 20.35464478 C-194.1536292 14.19948714 -181.55545314 8.13752864 -168.8348999 2.29971313 C-163.53576707 -0.13367444 -158.26001172 -2.59814392 -153.027771 -5.17269897 C-100.02926707 -31.23880874 -51.73227419 -25.83120753 0 0 Z " fill="#326CE5" transform="translate(2001.2230834960938,75.14535522460938)"/>
<path d="M0 0 C10.05014375 8.1197201 15.78086885 20.44445002 18 33 C19.46377619 50.6646114 17.29922008 67.55590732 14.42675781 84.91796875 C3.32637383 136.29705599 3.32637383 136.29705599 11 185 C13.21993483 187.70465454 15.52351502 190.2717226 17.94140625 192.80078125 C20.91940872 195.98221463 22.25658571 197.91070764 22.1953125 202.23046875 C22.18886719 203.03291016 22.18242188 203.83535156 22.17578125 204.66210938 C22.15902344 205.49548828 22.14226563 206.32886719 22.125 207.1875 C22.11597656 208.03248047 22.10695313 208.87746094 22.09765625 209.74804688 C22.07410703 211.83215243 22.03823647 213.91611217 22 216 C23.216875 216.08636719 24.43375 216.17273438 25.6875 216.26171875 C116.67693905 223.3168126 207.35543686 256.08069355 322 333 C322.80630859 333.6192334 322.80630859 333.6192334 323.62890625 334.25097656 C336.23547575 343.94999444 348.24642404 354.28623487 360 365 C360.90878906 365.81597656 361.81757813 366.63195312 362.75390625 367.47265625 C367.28085792 371.56559924 371.71976782 375.67467534 375.95703125 380.0703125 C376.62839111 380.76237793 377.29975098 381.45444336 377.99145508 382.16748047 C379.31378511 383.53851185 380.62520008 384.9201688 381.92456055 386.31298828 C382.82815308 387.24860596 382.82815308 387.24860596 383.75 388.203125 C384.28109375 388.76676758 384.8121875 389.33041016 385.359375 389.91113281 C386.95588437 391.2191393 386.95588437 391.2191393 389.02514648 390.80395508 C391.45868845 389.81326974 393.35308292 388.3195552 395.4140625 386.71118164 C400.95967018 382.42631267 405.02482483 380.17816909 412.18359375 380.79296875 C426.35343122 381.83457955 435.79573198 375.17823354 446.15625 366.4765625 C450.67073551 362.54499132 455.07876101 358.508109 459.45849609 354.42822266 C460.98004364 353.01848982 462.51320457 351.62268526 464.05078125 350.23046875 C470.48057924 344.39060675 476.72193794 338.38101766 482.875 332.25 C483.5764917 331.55310059 484.2779834 330.85620117 485.00073242 330.13818359 C489.5374822 325.58795245 493.80772666 320.86721086 498 316 C500.24107762 313.4930944 502.49521445 310.99884865 504.75390625 308.5078125 C506.17863528 306.91707157 507.58482693 305.3093694 508.96484375 303.6796875 C514.0816387 297.67347011 519.72152148 292.76836081 526 288 C526.78431396 287.40324463 526.78431396 287.40324463 527.58447266 286.79443359 C540.43867382 277.12767202 552.81368064 272.72165887 569 274 C581.90408766 276.58081753 591.12423804 282.51684292 599 293 C605.1544874 302.69742674 606.41560414 313.70544452 604.5 324.9296875 C599.32481617 345.68923171 583.08951644 359.67422156 565.45898438 370.55322266 C559.36612231 374.13804202 553.07659715 377.37742632 546.83129883 380.6862793 C536.88468952 385.98516796 527.40148253 391.79579057 518 398 C517.1244043 398.57282715 516.24880859 399.1456543 515.34667969 399.73583984 C504.99260821 406.51341652 494.71782748 413.32655697 485 421 C484.48083008 421.39638672 483.96166016 421.79277344 483.42675781 422.20117188 C473.72483715 429.5428621 473.72483715 429.5428621 468 440 C467.76206859 441.8913531 467.52564905 443.78299506 467.31201172 445.67724609 C466.0934931 455.79977357 461.73705636 460.3581705 453.95703125 466.71875 C452.98121094 467.4715625 452.00539063 468.224375 451 469 C452.60054477 473.67574876 455.14596567 477.43098076 457.875 481.5 C469.13345474 498.62780018 478.76690292 516.716916 488 535 C488.4626123 535.91442871 488.92522461 536.82885742 489.40185547 537.77099609 C529.54469801 617.75742675 549.02714631 709.86372709 542 865 C543.08539062 865.27972656 544.17078125 865.55945312 545.2890625 865.84765625 C559.32015252 869.68679783 559.32015252 869.68679783 564 877 C565.14257251 878.41562349 566.3104068 879.81115345 567.5 881.1875 C568.0259375 881.82042969 568.551875 882.45335937 569.09375 883.10546875 C573.93643201 887.91838018 578.9814405 889.90832677 585.4375 891.5 C586.26894531 891.70939209 587.10039062 891.91878418 587.95703125 892.13452148 C615.05598213 898.75094745 643.19064242 901.52744242 671 903.0625 C695.2961443 904.41510804 722.10245324 906.53587891 739.7734375 925.30078125 C747.45996589 934.61901128 751.50607219 945.51441236 750.9375 957.625 C749.47860215 970.61539897 743.20444705 979.81050244 733.42578125 988.17578125 C721.35393228 997.25396719 707.33831063 998.5078356 692.77050781 996.72753906 C677.42959062 994.28929333 662.6457869 988.3773276 648.47607422 982.1940918 C600.23138279 959.87519379 600.23138279 959.87519379 550.23828125 957.99609375 C547.95958585 959.01812642 546.23642003 960.24868465 544.25 961.75 C538.86871353 965.35190317 533.09000246 963.92339387 527 963 C524.66682383 962.66556834 522.33350925 962.33209958 520 962 C519.69932617 962.88333008 519.39865234 963.76666016 519.08886719 964.67675781 C488.63327913 1053.6954721 439.99406762 1131.91661006 373.5625 1198.5625 C372.63904785 1199.490625 371.7155957 1200.41875 370.76416016 1201.375 C365.66895444 1206.458217 360.47617904 1211.33172236 355 1216 C353.83195189 1217.02186057 352.66525876 1218.04527228 351.5 1219.0703125 C328.64549548 1239.05706762 304.38180735 1256.3891794 279 1273 C277.9466748 1273.69125977 276.89334961 1274.38251953 275.80810547 1275.09472656 C274.8182666 1275.73635742 273.82842773 1276.37798828 272.80859375 1277.0390625 C271.92872803 1277.61092285 271.0488623 1278.1827832 270.14233398 1278.77197266 C268 1280 268 1280 266 1280 C266.51691406 1281.16917969 267.03382812 1282.33835937 267.56640625 1283.54296875 C268.23246339 1285.09084801 268.89778983 1286.63904183 269.5625 1288.1875 C269.90474609 1288.95642578 270.24699219 1289.72535156 270.59960938 1290.51757812 C273.59657439 1297.57104124 273.59657439 1297.57104124 272 1302 C271.75121094 1302.80179688 271.50242187 1303.60359375 271.24609375 1304.4296875 C270.97925781 1305.23664063 270.71242188 1306.04359375 270.4375 1306.875 C267.14071239 1317.8859458 270.9123625 1327.42935047 275.6875 1337.4375 C276.25682251 1338.63125244 276.25682251 1338.63125244 276.83764648 1339.84912109 C288.14041668 1362.89131476 302.44892173 1387.07012791 318.4375 1407.125 C325.99991888 1416.63493144 331.68310597 1427.0115107 336.9375 1437.9375 C337.31527588 1438.71818848 337.69305176 1439.49887695 338.08227539 1440.30322266 C344.28963349 1453.56767986 345.27576477 1468.14995586 340.32421875 1482.06640625 C335.43814222 1492.89072328 327.1960805 1501.71257171 316 1506 C303.32632172 1510.17414702 290.8767642 1508.89384423 279 1503 C275.70256047 1500.93419339 272.85713713 1498.63338542 270 1496 C269.09894531 1495.25169922 269.09894531 1495.25169922 268.1796875 1494.48828125 C253.42305913 1481.35289681 247.30884712 1457.68288965 242.19503784 1439.4598999 C229.76470594 1388.08806854 229.76470594 1388.08806854 202.1171875 1346.140625 C199.32652106 1344.63716633 196.43696418 1343.70772591 193.4375 1342.6875 C186.71472696 1340.2947794 184.06514457 1337.30797869 181 1331 C180.38125 1329.865625 179.7625 1328.73125 179.125 1327.5625 C178 1325 178 1325 178 1323 C176.96488281 1323.40089844 175.92976563 1323.80179688 174.86328125 1324.21484375 C96.54906754 1354.0683971 10.15035256 1366.05156992 -220 1326 C-222.99875776 1324.99621753 -225.99930445 1323.99797654 -229 1323 C-229.85658203 1324.75376953 -229.85658203 1324.75376953 -230.73046875 1326.54296875 C-237.98594112 1340.54923785 -237.98594112 1340.54923785 -245.8125 1343.375 C-247.39998047 1343.78878906 -247.39998047 1343.78878906 -249.01953125 1344.2109375 C-255.29184814 1345.87149846 -258.13290154 1349.04018624 -261.4375 1354.4375 C-261.97213867 1355.26797852 -261.97213867 1355.26797852 -262.51757812 1356.11523438 C-268.72548743 1365.99295202 -273.19181117 1376.55035205 -277.125 1387.5 C-277.35344604 1388.1299588 -277.58189209 1388.7599176 -277.81726074 1389.40896606 C-281.78948835 1400.36319466 -285.55838284 1411.38589457 -289.25 1422.4375 C-289.50645294 1423.20508636 -289.76290588 1423.97267273 -290.02713013 1424.76351929 C-292.76334904 1432.97738147 -295.39071848 1441.19890488 -297.76367188 1449.52636719 C-303.63011621 1469.98720544 -311.74234542 1491.24454604 -330.734375 1502.82421875 C-342.39227431 1508.87426649 -354.27107791 1511.3327161 -367.1875 1507.5 C-377.66466161 1503.50470904 -385.66676453 1496.88174419 -391 1487 C-397.00742578 1473.33172851 -397.96034767 1459.5284114 -392.91699219 1445.29052734 C-387.51039293 1431.78554485 -380.02858803 1419.20619441 -371.24316406 1407.65576172 C-336.87921234 1364.52942746 -336.87921234 1364.52942746 -321.515625 1314.515625 C-322.2335431 1310.7870826 -323.30467611 1307.18589386 -324.37890625 1303.546875 C-326.182323 1296.15173212 -323.02071704 1290.23806632 -319.9609375 1283.63671875 C-318.67162378 1280.94853934 -318.67162378 1280.94853934 -320 1278 C-322.18498258 1276.53636098 -324.33948801 1275.22482066 -326.625 1273.9375 C-339.59817494 1266.39017843 -351.88918759 1257.85346641 -364 1249 C-364.62487305 1248.54399414 -365.24974609 1248.08798828 -365.89355469 1247.61816406 C-379.42029165 1237.7094382 -392.53220679 1227.25413993 -404.8984375 1215.921875 C-406.80036142 1214.18256911 -408.73319732 1212.49236869 -410.6875 1210.8125 C-424.1539747 1199.05304322 -437.67341658 1186.7052396 -449.23828125 1173.04296875 C-451.09078907 1170.89471688 -453.00851824 1168.81377143 -454.9387207 1166.73535156 C-460.55115908 1160.68693081 -465.86169143 1154.46008812 -471 1148 C-471.40653809 1147.49307617 -471.81307617 1146.98615234 -472.23193359 1146.46386719 C-484.97565659 1130.56460195 -496.98056897 1114.1417352 -508 1097 C-508.50853516 1096.20964355 -509.01707031 1095.41928711 -509.54101562 1094.60498047 C-535.86224122 1053.4432382 -556.55402327 1009.33793019 -572 963 C-572.94101563 963.144375 -573.88203125 963.28875 -574.8515625 963.4375 C-576.09679688 963.623125 -577.34203125 963.80875 -578.625 964 C-579.85476563 964.185625 -581.08453125 964.37125 -582.3515625 964.5625 C-588.65627797 965.31852584 -592.25274391 965.24184754 -597.875 962.125 C-610.86863463 955.36447423 -621.64908742 957.32054627 -635.5 960.8125 C-636.68980469 961.11164307 -637.87960937 961.41078613 -639.10546875 961.71899414 C-661.13566964 967.46852563 -682.66624483 975.36695294 -703.69433594 984.05126953 C-752.62083668 1004.18345736 -752.62083668 1004.18345736 -777.76171875 994.54296875 C-782.50600185 992.28242373 -786.24074201 989.65585993 -790 986 C-790.70769531 985.33097656 -791.41539063 984.66195312 -792.14453125 983.97265625 C-800.02275836 975.88979986 -803.68627599 966.46668844 -804.12890625 955.2265625 C-803.5866669 941.65414713 -797.46417206 930.40348327 -787.68359375 921.21875 C-770.25682789 906.81059424 -745.46191156 905.25274337 -723.875 904.125 C-698.59822417 902.79662484 -673.31611713 899.98845392 -648.5 894.9375 C-647.35047852 894.70450195 -646.20095703 894.47150391 -645.01660156 894.23144531 C-635.54954843 892.17115394 -625.75667987 889.63114694 -620.10546875 881.16015625 C-619.47253906 880.13792969 -618.83960938 879.11570312 -618.1875 878.0625 C-612.70978721 870.4715579 -605.92939662 868.72568114 -597 867 C-596.01 867 -595.02 867 -594 867 C-594.19335938 865.70191406 -594.38671875 864.40382813 -594.5859375 863.06640625 C-597.86232395 840.47114652 -599.41825289 817.81741442 -600 795 C-600.02336426 794.12972168 -600.04672852 793.25944336 -600.07080078 792.36279297 C-601.88842699 713.44115731 -585.11174846 633.3779533 -543 537 C-542.53126465 536.01870117 -542.0625293 535.03740234 -541.57958984 534.02636719 C-530.89150023 511.78211977 -518.35089524 490.73545634 -505 470 C-505.91850095 468.87789232 -506.8444647 467.76189122 -507.7734375 466.6484375 C-508.5456665 465.71523682 -508.5456665 465.71523682 -509.33349609 464.76318359 C-510.98507298 463.01579298 -512.58077543 461.87054539 -514.625 460.625 C-519.14299398 456.9788996 -519.49915014 451.7262655 -520.58911133 446.32519531 C-523.13330387 433.94193348 -531.40466075 426.60144411 -541.3125 419.3125 C-542.0034375 418.80050049 -542.694375 418.28850098 -543.40625 417.76098633 C-551.41364441 411.88392541 -559.65363485 406.38133578 -568 401 C-568.90782227 400.4131543 -569.81564453 399.82630859 -570.75097656 399.22167969 C-582.85018691 391.43570867 -595.11473975 384.19378092 -607.8137207 377.4309082 C-618.19146743 371.88303444 -627.51992853 365.68351079 -636.53515625 358.078125 C-637.99501819 356.84730637 -639.4753225 355.63908976 -640.99609375 354.484375 C-649.67885605 347.75475077 -656.34694507 335.87617448 -658 325 C-658.87281088 311.00640912 -657.45937555 299.08330268 -648 288 C-642.06774065 282.23195544 -635.89397582 278.45128723 -628 276 C-627.39671875 275.80921875 -626.7934375 275.6184375 -626.171875 275.421875 C-613.23351122 272.90866765 -599.50808175 275.36866126 -588.3125 282.1875 C-582.59508859 286.11137882 -577.27959388 290.5123452 -572 295 C-571.34 295.53625 -570.68 296.0725 -570 296.625 C-566.27815285 299.68223159 -563.13408756 302.99776192 -560.015625 306.6640625 C-556.71815926 310.48554412 -553.26864537 314.16805443 -549.84375 317.875 C-547.81255075 320.08332011 -545.85203952 322.34070128 -543.90234375 324.62109375 C-539.38715444 329.79836315 -534.52204005 334.62779232 -529.6574707 339.47290039 C-528.06541034 341.05959946 -526.4787701 342.65157742 -524.89257812 344.24414062 C-519.43352442 349.70708372 -513.88748294 354.99680941 -508 360 C-506.84583764 361.01877675 -505.69345395 362.03957253 -504.54296875 363.0625 C-490.89892927 375.60550839 -490.89892927 375.60550839 -474 382 C-472.12350496 381.79172523 -470.24703453 381.58051397 -468.37573242 381.32983398 C-460.61537465 380.32432082 -456.32770799 381.11744149 -450 385.9375 C-447.93884773 387.57243395 -445.96767045 389.25061799 -444 391 C-439.91336579 389.3837447 -437.21049134 386.44804688 -434.203125 383.36328125 C-433.65066101 382.80561569 -433.09819702 382.24795013 -432.5289917 381.67338562 C-430.76449486 379.89112195 -429.00681205 378.10233665 -427.25 376.3125 C-413.18477363 362.0226207 -413.18477363 362.0226207 -406 356 C-404.89310926 355.03939651 -403.78760533 354.07719235 -402.68359375 353.11328125 C-370.08744723 324.91798746 -334.55863067 300.58584169 -296.50732422 280.34179688 C-294.25577295 279.13687713 -292.01826672 277.91052411 -289.78515625 276.671875 C-223.98652846 240.47174791 -149.87837805 223.7929374 -76 215 C-75.97711914 213.84097168 -75.95423828 212.68194336 -75.93066406 211.48779297 C-75.87670291 209.94755393 -75.82163104 208.40735353 -75.765625 206.8671875 C-75.75354004 206.10559326 -75.74145508 205.34399902 -75.72900391 204.55932617 C-75.45247502 197.97581154 -73.19621779 194.48092116 -68.421875 189.8828125 C-60.48791461 180.43884029 -60.18701139 170.37538504 -60.375 158.625 C-60.38109283 157.79129883 -60.38718567 156.95759766 -60.39346313 156.09863281 C-60.62131734 129.04421263 -64.12043535 102.11114887 -68.8125 75.5 C-70.56837869 65.42736255 -71.49098672 55.60467902 -71.5625 45.375 C-71.58437378 43.6415332 -71.58437378 43.6415332 -71.60668945 41.87304688 C-71.42772507 26.99188692 -66.54389006 14.13958937 -56.43359375 3.33203125 C-40.18672456 -12.23679846 -18.07582943 -12.92437045 0 0 Z " fill="#FEFEFE" transform="translate(1946,330)"/>
<path d="M0 0 C2.08308815 0.35270047 4.1663982 0.70409238 6.24990845 1.05429077 C11.85296074 1.99982377 17.45275855 2.96345763 23.05210948 3.93063498 C28.93743726 4.94397934 34.82562928 5.94040497 40.71351624 6.93875122 C51.85081888 8.82980966 62.98547096 10.73602449 74.11924416 12.64774048 C86.75945122 14.81730592 99.40265165 16.96917045 112.04607952 19.11987281 C130.69908175 22.29337054 149.35091247 25.4737107 167.99995804 28.67038345 C170.00940636 29.01480903 172.01888426 29.35906204 174.0283947 29.703125 C193.42213167 33.02437438 193.42213167 33.02437438 202.57836914 34.72705078 C203.71969999 38.5897927 203.23145904 40.38702053 201.69165039 44.14501953 C201.25393311 45.22203125 200.81621582 46.29904297 200.36523438 47.40869141 C199.87869385 48.565625 199.39215332 49.72255859 198.89086914 50.91455078 C198.39337158 52.11402344 197.89587402 53.31349609 197.38330078 54.54931641 C192.248569 66.8310192 186.54408567 78.82850934 180.57836914 90.72705078 C180.15201172 91.58234375 179.7256543 92.43763672 179.28637695 93.31884766 C161.60244098 128.57452969 138.01216474 160.62052523 111.41821289 189.64111328 C109.5396711 191.69862132 109.5396711 191.69862132 107.95727539 194.00048828 C107.50223633 194.57025391 107.04719727 195.14001953 106.57836914 195.72705078 C105.91836914 195.72705078 105.25836914 195.72705078 104.57836914 195.72705078 C104.36438477 196.26716797 104.15040039 196.80728516 103.92993164 197.36376953 C102.09200591 200.57748359 99.58167595 202.97622515 96.95336914 205.53955078 C96.41067383 206.07507568 95.86797852 206.61060059 95.30883789 207.16235352 C91.86802423 210.53420788 88.35170402 213.78258102 84.67993164 216.90283203 C82.55971097 218.74324663 80.50997744 220.64938471 78.46142578 222.56884766 C72.02402329 228.58000802 65.27242819 234.05940708 58.2824707 239.41259766 C56.6888071 240.64186483 55.11330769 241.89458047 53.53930664 243.14892578 C46.7041901 248.55343653 39.62608676 253.49985391 32.39086914 258.35205078 C31.45686279 258.98087158 30.52285645 259.60969238 29.56054688 260.25756836 C28.68599854 260.83788818 27.8114502 261.41820801 26.91040039 262.01611328 C25.73054565 262.80042725 25.73054565 262.80042725 24.52685547 263.60058594 C22.57836914 264.72705078 22.57836914 264.72705078 20.57836914 264.72705078 C12.41400385 245.18076329 4.28456485 225.62037918 -3.79663086 206.03955078 C-9.86893049 191.32662528 -15.94824115 176.61668351 -22.04663086 161.91455078 C-22.39419434 161.07657959 -22.74175781 160.2386084 -23.09985352 159.37524414 C-25.53998412 153.49232138 -27.9807247 147.60965179 -30.42163086 141.72705078 C-31.81230771 138.37550979 -33.20293315 135.02394748 -34.59350586 131.67236328 C-34.9397551 130.83788162 -35.28600433 130.00339996 -35.64274597 129.14363098 C-37.38911595 124.93426708 -39.13448849 120.72449387 -40.87792969 116.51391602 C-41.58128016 114.81542196 -42.28464946 113.1169357 -42.98803711 111.41845703 C-43.34045975 110.56740891 -43.69288239 109.71636078 -44.0559845 108.83952332 C-46.448051 103.0666829 -48.85084704 97.29839102 -51.25848389 91.5320282 C-52.99815442 87.36282822 -54.73297826 83.19162074 -56.46710205 79.02011108 C-57.30019981 77.01923572 -58.13538599 75.01922839 -58.97283936 73.02017212 C-74.03935146 37.04650139 -74.03935146 37.04650139 -68.45288086 21.06298828 C-63.86217008 10.6643328 -56.01702475 2.70477908 -45.46459961 -1.58154297 C-31.15086197 -6.42577158 -14.44541558 -2.52463007 0 0 Z " fill="#326CE5" transform="translate(2145.421630859375,1236.27294921875)"/>
<path d="M0 0 C-2.44571465 47.36820839 -5.09161261 94.72499119 -7.77740824 142.08008403 C-8.09629725 147.7027306 -8.41469317 153.32540495 -8.73291016 158.9480896 C-9.16904951 166.65323998 -9.60652934 174.35831347 -10.04493141 182.06333542 C-10.20855183 184.93942347 -10.37174457 187.81553526 -10.53455162 190.69166946 C-10.76038142 194.68033754 -10.98789768 198.66890773 -11.21557617 202.6574707 C-11.28051018 203.80790706 -11.34544418 204.95834341 -11.41234589 206.14364147 C-13.74323741 246.79953087 -13.74323741 246.79953087 -26.6171875 258.34765625 C-35.83617851 265.38320202 -45.35304425 268.96001346 -57 268 C-71.5500343 265.62225826 -83.13500919 255.95729771 -94.79882812 247.57617188 C-97.63223956 245.54727833 -100.48290667 243.5435398 -103.33447266 241.5402832 C-109.86404121 236.95199919 -116.35222196 232.31027441 -122.8125 227.625 C-130.09221092 222.34655415 -137.43843388 217.16932132 -144.81298828 212.02441406 C-150.18324405 208.27665219 -155.52881441 204.49755013 -160.85131836 200.68237305 C-165.32484621 197.47729184 -169.81549566 194.29704871 -174.3125 191.125 C-175.02631836 190.62137939 -175.74013672 190.11775879 -176.47558594 189.59887695 C-180.05753515 187.07259659 -183.6411842 184.5487548 -187.2265625 182.02734375 C-194.47991688 176.92213378 -201.69959742 171.77678722 -208.875 166.5625 C-215.78967161 161.54147911 -222.80416254 156.68737512 -229.87426758 151.88842773 C-237.01368842 147.02715456 -244.01044334 141.9810325 -250.99609375 136.90234375 C-255.62182947 133.54025558 -260.29527242 130.25075398 -265 127 C-260.16858873 121.02430711 -254.79159336 116.03719314 -249 111 C-248.48937012 110.54995605 -247.97874023 110.09991211 -247.45263672 109.63623047 C-237.9809382 101.28863301 -228.12274264 93.54045612 -218 86 C-217.28328125 85.4622998 -216.5665625 84.92459961 -215.828125 84.37060547 C-199.09353882 71.85352628 -181.39850124 61.02327941 -163.02001953 51.09814453 C-161.16847025 50.09158559 -159.33082603 49.0641381 -157.49609375 48.02734375 C-113.23738123 23.50630507 -51.75707534 -0.35210722 0 0 Z " fill="#326CE5" transform="translate(1864,664)"/>
<path d="M0 0 C4.07867771 1.88520916 7.02283715 4.61764553 10.25 7.6875 C11.41725351 8.78201327 12.58521929 9.87576745 13.75390625 10.96875 C14.31480957 11.4946875 14.87571289 12.020625 15.45361328 12.5625 C17.93450823 14.8687061 20.49038307 17.08391658 23.05078125 19.30078125 C27.95348303 23.5746796 32.75112166 27.96919471 37.578125 32.328125 C41.3430085 35.72344938 45.11193551 39.11058342 48.9375 42.4375 C53.13303221 46.09057956 57.23373553 49.84505549 61.34375 53.59375 C63.54352741 55.58648953 65.75955218 57.5533814 68 59.5 C72.17729083 63.12944941 76.25537239 66.8647902 80.34375 70.59375 C82.54352741 72.58648953 84.75955218 74.5533814 87 76.5 C91.17729083 80.12944941 95.25537239 83.8647902 99.34375 87.59375 C101.54352741 89.58648953 103.75955218 91.5533814 106 93.5 C110.17729083 97.12944941 114.25537239 100.8647902 118.34375 104.59375 C120.54352741 106.58648953 122.75955218 108.5533814 125 110.5 C128.20899244 113.28814098 131.35916444 116.13528185 134.5 119 C138.28934126 122.45575413 142.11083698 125.8652289 145.98046875 129.23046875 C150.93462443 133.57134403 155.80435522 138.00889855 160.68359375 142.43359375 C161.55113281 143.21863281 162.41867187 144.00367188 163.3125 144.8125 C164.09238281 145.52019531 164.87226562 146.22789062 165.67578125 146.95703125 C167.25679071 148.34672528 168.88224147 149.68709128 170.54296875 150.98046875 C179.5980337 158.42318509 185.47950013 168.93163743 186.9375 180.5625 C187.48006606 192.38026692 183.89618878 202.69250196 176.125 211.6875 C163.51371692 222.7457041 145.82095474 226.33927964 130.11493301 230.680233 C126.58109252 231.66124708 123.05281203 232.66185617 119.52416992 233.66137695 C114.86822145 234.9793249 110.2119626 236.2960964 105.55378723 237.6061554 C86.05572785 243.09215176 66.60137906 248.72961927 47.14373779 254.35693359 C40.83940549 256.18006705 34.53427877 258.00044198 28.22900391 259.8203125 C-1.85939473 268.50554215 -31.93766771 277.22493591 -62 286 C-70.06053143 277.93946857 -66.28399979 247.93558049 -66.3125 236.5 C-66.2745386 171.36845151 -52.06065367 108.6078224 -26 49 C-25.63165039 48.15663086 -25.26330078 47.31326172 -24.88378906 46.44433594 C-17.78407977 30.38167658 -9.12667121 14.98748501 0 0 Z " fill="#326CE5" transform="translate(1529,878)"/>
<path d="M0 0 C2.9445202 2.75020169 5.01667848 5.4067927 6.99609375 8.91015625 C7.5480542 9.88573486 8.10001465 10.86131348 8.66870117 11.86645508 C9.54425659 13.44849731 9.54425659 13.44849731 10.4375 15.0625 C11.05149658 16.16940186 11.66549316 17.27630371 12.2980957 18.41674805 C49.18558356 85.68216707 69.19175867 161.52486756 69.18530273 238.27954102 C69.187484 241.16632976 69.20570662 244.05273168 69.22460938 246.93945312 C69.26174229 259.73725263 68.44488038 272.28587132 67 285 C52.81043568 281.69661691 38.85927233 277.54932883 24.87973022 273.46618652 C18.02335868 271.46361219 11.16401121 269.47126391 4.30495262 267.47791672 C1.87334949 266.77118741 -0.55816027 266.06413746 -2.9896698 265.35708618 C-19.03735652 260.69207503 -35.09619577 256.06604409 -51.15816021 251.45046234 C-56.2536263 249.98613941 -61.34846041 248.51964504 -66.4427557 247.05125427 C-81.93515574 242.5862448 -97.43043339 238.13690309 -112.96749306 233.82947922 C-117.47320325 232.57855659 -121.97590259 231.31681486 -126.4793396 230.05773926 C-129.92982234 229.09935183 -133.38510114 228.16007085 -136.84106445 227.22167969 C-152.32079004 222.94064029 -169.61975841 218.07848818 -178.515625 203.51953125 C-183.87104797 193.34730545 -185.8452651 183.09599229 -182.875 171.8125 C-181.12290965 166.6149114 -178.22398017 162.39143817 -175 158 C-174.34 157.01 -173.68 156.02 -173 155 C-172.34 155 -171.68 155 -171 155 C-170.77570312 154.43925781 -170.55140625 153.87851563 -170.3203125 153.30078125 C-168.60687657 150.31494172 -166.45183939 148.46645963 -163.875 146.1875 C-163.1325 145.52621094 -163.1325 145.52621094 -162.375 144.8515625 C-160.92262062 143.56097668 -159.46147141 142.28028081 -158 141 C-157.30132813 140.38769531 -156.60265625 139.77539062 -155.8828125 139.14453125 C-154.62123609 138.04261493 -153.35819861 136.94236928 -152.09375 135.84375 C-149.53580973 133.59123543 -147.0182102 131.29682908 -144.5 129 C-140.73649479 125.56735239 -136.93870649 122.1844499 -133.09375 118.84375 C-130.53580973 116.59123543 -128.0182102 114.29682908 -125.5 112 C-121.73649479 108.56735239 -117.93870649 105.1844499 -114.09375 101.84375 C-111.53580973 99.59123543 -109.0182102 97.29682908 -106.5 95 C-102.73649479 91.56735239 -98.93870649 88.1844499 -95.09375 84.84375 C-92.53580973 82.59123543 -90.0182102 80.29682908 -87.5 78 C-83.73649479 74.56735239 -79.93870649 71.1844499 -76.09375 67.84375 C-73.53580973 65.59123543 -71.0182102 63.29682908 -68.5 61 C-64.73649479 57.56735239 -60.93870649 54.1844499 -57.09375 50.84375 C-54.53580973 48.59123543 -52.0182102 46.29682908 -49.5 44 C-45.73649479 40.56735239 -41.93870649 37.1844499 -38.09375 33.84375 C-35.53580973 31.59123543 -33.0182102 29.29682908 -30.5 27 C-26.73920469 23.56982406 -22.94478663 20.18868304 -19.1015625 16.8515625 C-16.49724295 14.55705048 -13.93731137 12.21630339 -11.375 9.875 C-7.65637597 6.48220812 -3.90968102 3.17001164 0 0 Z " fill="#326CE5" transform="translate(2307,878)"/>
<path d="M0 0 C10.35505451 9.31317018 16.38714789 23.43844744 22.8762207 35.51879883 C26.60602612 42.4569932 30.41721615 49.34095163 34.3125 56.1875 C39.20763814 64.79973027 44.03338405 73.44803477 48.8125 82.125 C49.3145697 83.03646286 49.3145697 83.03646286 49.82678223 83.96633911 C51.53439134 87.06697351 53.24108358 90.16811138 54.94726562 93.26953125 C58.31476233 99.39036235 61.68833511 105.50784298 65.0625 111.625 C65.55950912 112.52620575 65.55950912 112.52620575 66.06655884 113.44561768 C71.47624108 123.253722 76.91119422 133.04760955 82.35571289 142.83642578 C87.58880436 152.24926991 92.7936447 161.67749509 97.98876953 171.11132812 C101.39969609 177.30272711 104.82441767 183.48597974 108.2734375 189.65625 C108.9687683 190.90168249 109.66408108 192.14712505 110.359375 193.39257812 C111.67120884 195.74210778 112.98687074 198.08935286 114.3046875 200.43554688 C114.8925 201.48806641 115.4803125 202.54058594 116.0859375 203.625 C116.6020459 204.54539062 117.1181543 205.46578125 117.64990234 206.4140625 C118.94594971 208.89647366 120.0106423 211.38218907 121 214 C73.40128672 229.3603059 24.9587412 237.46402056 -25.125 237.375 C-26.34167358 237.37412384 -27.55834717 237.37324768 -28.81188965 237.37234497 C-74.78606402 237.26386928 -127.24506204 232.35300392 -170 214 C-170.33 213.34 -170.66 212.68 -171 212 C-170.03466797 209.7512207 -170.03466797 209.7512207 -168.4921875 206.92578125 C-167.9242749 205.8776123 -167.3563623 204.82944336 -166.77124023 203.74951172 C-165.83260132 202.04819092 -165.83260132 202.04819092 -164.875 200.3125 C-164.23003979 199.13064945 -163.58559588 197.94851701 -162.94165039 196.76611328 C-158.32433953 188.31096776 -153.5949599 179.91946894 -148.82763672 171.5480957 C-144.96109249 164.74623217 -141.20742078 157.88973951 -137.5 151 C-132.73670953 142.14888042 -127.84634335 133.38023314 -122.875 124.64453125 C-118.99563034 117.8090073 -115.22459201 110.92093659 -111.5 104 C-106.73666689 95.14890266 -101.84634397 86.38023423 -96.875 77.64453125 C-92.99562793 70.80900307 -89.22475906 63.92084987 -85.5 57 C-79.61923294 46.07819423 -73.5558369 35.26872908 -67.41015625 24.49414062 C-66.1481362 22.26200821 -64.91106667 20.01899067 -63.6875 17.765625 C-56.60812781 4.78705658 -49.72797174 -2.48912962 -36 -8 C-22.98504383 -11.36121991 -10.61236082 -7.86499837 0 0 Z " fill="#326CE5" transform="translate(1945,1336)"/>
<path d="M0 0 C8.41934469 7.08127027 13.58047999 15.91548033 15.125 26.875 C15.72411063 40.12634903 11.3035691 52.07098333 6.0395813 63.96353149 C4.58683487 67.24606035 3.1713446 70.54432158 1.75218201 73.84147644 C1.0087746 75.56724253 0.26345114 77.29218446 -0.48374939 79.01631165 C-4.0207578 87.18470166 -7.40912921 95.41061479 -10.76818848 103.6534729 C-12.42445175 107.71737215 -14.087332 111.77856158 -15.75 115.83984375 C-16.0825177 116.65237106 -16.4150354 117.46489838 -16.75762939 118.30204773 C-20.56045947 127.58794681 -24.40341747 136.85715776 -28.25 146.125 C-28.6029715 146.97555969 -28.95594299 147.82611938 -29.3196106 148.70245361 C-31.10597111 153.00675653 -32.89288276 157.31083031 -34.68017578 161.61474609 C-38.18496448 170.05469023 -41.68665945 178.49591754 -45.1875 186.9375 C-45.52982666 187.76292297 -45.87215332 188.58834595 -46.22485352 189.43878174 C-52.24436989 203.9545873 -58.2498959 218.47616063 -64.25 233 C-64.66731384 234.00993011 -65.08462769 235.01986023 -65.5145874 236.06039429 C-66.69624824 238.92033692 -67.87749874 241.78044865 -69.05859375 244.640625 C-69.40986832 245.49076675 -69.76114288 246.34090851 -70.12306213 247.21681213 C-71.70670133 251.05326863 -73.28288841 254.89157307 -74.8125 258.75 C-90.24196672 255.99345954 -108.24419683 237.38392032 -119.8828125 227.27734375 C-122.76995387 224.78670312 -125.71536667 222.38817759 -128.6875 220 C-132.40434174 216.97704044 -135.83791663 213.84560743 -139.1640625 210.40234375 C-140.83258257 208.72986984 -142.57174907 207.21303507 -144.375 205.6875 C-152.87011635 198.35382534 -160.94347645 190.21581586 -168.19140625 181.6484375 C-170.0934365 179.42099967 -172.0785772 177.27977029 -174.0625 175.125 C-179.64903123 168.92404486 -184.73746861 162.36975475 -189.8125 155.75 C-190.53808105 154.80979004 -190.53808105 154.80979004 -191.27832031 153.85058594 C-257.8125 67.46594472 -257.8125 67.46594472 -257.8125 30.75 C-257.12495762 30.63314 -256.43741524 30.51628 -255.72903824 30.39587879 C-252.3274953 29.81772062 -248.92595457 29.23954943 -245.52441406 28.66137695 C-244.87612326 28.5511867 -244.22783245 28.44099644 -243.55989647 28.32746708 C-235.39085137 26.93896477 -227.22184779 25.55021876 -219.05291748 24.16104126 C-215.83085324 23.61312707 -212.60878659 23.06522701 -209.38671875 22.51733398 C-208.56567107 22.37771697 -207.74462338 22.23809995 -206.89869547 22.09425211 C-195.85789635 20.21686858 -184.81673501 18.34163197 -173.77524567 16.46831226 C-165.35520984 15.03972611 -156.93536384 13.6100229 -148.515625 12.1796875 C-147.27007812 11.96811465 -147.27007812 11.96811465 -145.99936867 11.7522676 C-126.53003648 8.44472293 -107.06439115 5.11986768 -87.6158371 1.69180489 C-84.86202196 1.20678657 -82.10787252 0.72372008 -79.35357666 0.24143982 C-77.642944 -0.05819513 -75.93231167 -0.35783191 -74.22167969 -0.6574707 C-73.41555866 -0.79861581 -72.60943764 -0.93976091 -71.7788887 -1.08518314 C-67.9640437 -1.75441612 -64.15054808 -2.43002758 -60.33947754 -3.12045288 C-15.54903134 -11.2312838 -15.54903134 -11.2312838 0 0 Z " fill="#326CE5" transform="translate(1748.8125,1241.25)"/>
<path d="M0 0 C42.20557711 2.80419938 85.31570612 16.10123756 124 33 C125.33321289 33.57621094 125.33321289 33.57621094 126.69335938 34.1640625 C156.88427462 47.30671965 185.53782142 63.3730705 212 83 C213.31639115 83.96486435 214.63279811 84.92970714 215.94921875 85.89453125 C227.39932388 94.33625757 238.1953351 103.35876041 248.71484375 112.9375 C251.49775834 115.44925881 254.34418947 117.8814873 257.2109375 120.296875 C259.3805253 122.36224679 261.17140859 124.63169218 263 127 C253.97257774 133.70217714 244.84420805 140.23858134 235.61816406 146.66455078 C230.0390273 150.55640595 224.50381165 154.50243695 219 158.5 C211.87765899 163.67201699 204.68532942 168.73591573 197.46313477 173.76733398 C191.91179559 177.64182368 186.41144576 181.57958946 180.9375 185.5625 C174.80051443 190.02588538 168.59107022 194.3632132 162.3125 198.625 C155.9662776 202.9332679 149.72068231 207.34336798 143.55737305 211.90893555 C136.83747764 216.88113618 129.99792626 221.67995517 123.15722656 226.48388672 C119.60070613 228.98343311 116.05061302 231.49207276 112.5 234 C108.18157502 237.04956306 103.8621548 240.09768084 99.5390625 243.140625 C98.8063916 243.65681396 98.0737207 244.17300293 97.31884766 244.70483398 C95.86871272 245.72618987 94.41787795 246.74655291 92.96630859 247.76586914 C88.96143118 250.58555343 85.03044094 253.48068179 81.125 256.4375 C70.50926246 264.19763641 59.14782866 268.04508382 46 267 C35.679868 265.30057707 26.83203896 259.90535864 20.5 251.625 C15.2270919 244.22952296 13.58309259 236.19930062 12.89553833 227.29884338 C12.77844598 225.93559633 12.77844598 225.93559633 12.65898812 224.54480892 C11.81802234 214.44746707 11.22996536 204.33465915 10.67138672 194.21850586 C10.55321027 192.1332355 10.43467931 190.04798521 10.31582642 187.9627533 C9.99825086 182.37319896 9.68563569 176.78337771 9.37406301 171.19348598 C9.04588712 165.3202846 8.71322976 159.44733688 8.38113403 153.57435608 C7.82544917 143.73616301 7.27275705 133.89780569 6.72216797 124.05932617 C6.01524433 111.42752985 5.30349441 98.7960103 4.59019279 86.16457272 C3.97571376 75.28280646 3.36321162 64.40092907 2.75114298 53.51902699 C2.55466089 50.02687083 2.35794775 46.53472773 2.16122055 43.04258537 C1.85308513 37.57024561 1.54617633 32.09783835 1.24023056 26.62537575 C1.12773719 24.61615742 1.0148642 22.60696031 0.90158844 20.59778595 C0.74738068 17.86126348 0.59455784 15.12466716 0.44210815 12.38804626 C0.39678101 11.58914111 0.35145387 10.79023595 0.30475318 9.96712154 C0.12053399 6.63627629 0 3.33737769 0 0 Z " fill="#326CE5" transform="translate(1975,664)"/>
<path d="M0 0 C0.67059952 -0.02803711 1.34119904 -0.05607422 2.03211975 -0.08496094 C4.24831234 -0.16808101 6.46275134 -0.21198398 8.68017578 -0.24853516 C9.44234531 -0.26516834 10.20451485 -0.28180153 10.98978043 -0.29893875 C15.03244022 -0.38559753 19.07422615 -0.44188054 23.11767578 -0.47363281 C26.44182822 -0.50441875 29.75795001 -0.58742236 33.07958984 -0.71972656 C62.05888035 -1.85168011 62.05888035 -1.85168011 69.43481445 4.47094727 C72.57403628 7.90126307 74.92731498 11.58276964 77.07136536 15.69622803 C78.93183117 19.07465579 81.3610225 21.93950286 83.81298828 24.89990234 C84.69521786 26.02490827 85.57453076 27.15221325 86.44970703 28.28271484 C90.14185227 32.99682883 93.94215141 37.62396557 97.7487793 42.24584961 C98.77361338 43.49703136 99.78850911 44.75643054 100.79248047 46.02441406 C101.7518834 47.21740237 102.74737023 48.382385 103.77880859 49.51367188 C105.79755686 51.89484875 107.20640188 53.72825872 107.33332825 56.92152405 C106.49167664 64.0417724 105.01961841 70.94731191 103.37939453 77.92333984 C102.9558091 79.75235336 102.9558091 79.75235336 102.52366638 81.61831665 C101.77782445 84.83011913 101.0260558 88.04046272 100.27209473 91.25036621 C99.65838374 93.87311993 99.05314304 96.49779831 98.44790745 99.12251854 C97.7218503 102.26565209 96.98784005 105.40692351 96.25439453 108.54833984 C95.84804527 110.30771378 95.84804527 110.30771378 95.43348694 112.10263062 C95.17659592 113.19121368 94.9197049 114.27979675 94.6550293 115.40136719 C94.43154312 116.35715668 94.20805695 117.31294617 93.97779846 118.29769897 C92.31566982 124.10170643 92.31566982 124.10170643 89.42272949 126.09979248 C88.31169861 126.63651581 88.31169861 126.63651581 87.17822266 127.18408203 C86.33553833 127.59841492 85.492854 128.0127478 84.62463379 128.43963623 C83.70710327 128.8751178 82.78957275 129.31059937 81.84423828 129.75927734 C80.89093628 130.22295715 79.93763428 130.68663696 78.95544434 131.16436768 C75.89252363 132.65018167 72.82159304 134.11859216 69.75048828 135.58740234 C67.74346691 136.56030733 65.7369507 137.53425514 63.73095703 138.50927734 C59.78686681 140.42474867 55.8261138 142.29788718 51.85131836 144.14868164 C48.27105812 145.82702743 44.82559732 147.61520465 41.40551758 149.59838867 C30.36530388 155.75797922 30.36530388 155.75797922 23.75878906 153.94335938 C18.91391572 152.14139028 14.52182555 149.61266688 10.06298828 147.02490234 C8.45015882 146.15341283 6.83364858 145.28870258 5.21362305 144.43066406 C2.01350582 142.72799859 -1.16710142 140.99559632 -4.33642578 139.23632812 C-10.1926728 136.01293964 -16.22979608 133.23322836 -22.31201172 130.46240234 C-24.08843978 129.6514277 -25.86104768 128.83199407 -27.62841797 128.00146484 C-28.33554932 127.6761377 -29.04268066 127.35081055 -29.77124023 127.015625 C-33.31603976 124.90440662 -35.38326252 122.83456454 -36.82017517 118.92237854 C-37.08681473 117.79162399 -37.35345428 116.66086945 -37.62817383 115.49584961 C-37.77988037 114.86931488 -37.93158691 114.24278015 -38.08789062 113.59725952 C-38.58251804 111.53599928 -39.05553554 109.47051299 -39.52685547 107.40380859 C-39.8639243 105.96402244 -40.20170879 104.52440365 -40.54017639 103.08494568 C-41.2448733 100.07191321 -41.93845841 97.05658105 -42.62475586 94.03930664 C-43.50486418 90.17562501 -44.41592062 86.32001266 -45.33588314 82.46565342 C-46.04034347 79.49623609 -46.72639503 76.5227934 -47.40716743 73.54786491 C-47.73561653 72.12431451 -48.07019124 70.70216288 -48.41102409 69.28152657 C-48.88512945 67.29488539 -49.33149435 65.30168599 -49.77661133 63.30834961 C-50.03768173 62.17679947 -50.29875214 61.04524933 -50.56773376 59.87940979 C-50.86294781 54.93907848 -48.01629863 51.98994711 -44.99951172 48.34130859 C-44.21930664 47.39094727 -44.21930664 47.39094727 -43.42333984 46.42138672 C-42.59479492 45.42075195 -42.59479492 45.42075195 -41.74951172 44.39990234 C-40.5714892 42.96447468 -39.39442127 41.52826313 -38.21826172 40.09130859 C-37.63173828 39.37475098 -37.04521484 38.65819336 -36.44091797 37.91992188 C-34.00583421 34.92176015 -31.62414314 31.88351771 -29.24951172 28.83740234 C-23.67301266 21.69461017 -17.95721149 14.66760013 -12.22241211 7.65161133 C-10.64107044 5.76800784 -10.64107044 5.76800784 -9.07929993 3.27635193 C-6.01853889 0.07218004 -4.37725209 0.14530252 0 0 Z " fill="#326CE5" transform="translate(1890.74951171875,1043.16259765625)"/>
</svg>
