<?xml version="1.0" encoding="UTF-8"?>
<svg version="1.1" xmlns="http://www.w3.org/2000/svg" width="300" height="300">
<path d="M0 0 C99 0 198 0 300 0 C300 99 300 198 300 300 C201 300 102 300 0 300 C0 201 0 102 0 0 Z " fill="#1C6BB6" transform="translate(0,0)"/>
<path d="M0 0 C8.30778472 6.93991874 15.89024439 14.67837628 23.53808594 22.32763672 C26.19954454 24.98469379 28.87664595 27.62529544 31.5546875 30.265625 C33.26660276 31.97167569 34.97757358 33.67867471 36.6875 35.38671875 C37.48026337 36.16511108 38.27302673 36.94350342 39.08981323 37.7454834 C44.51515754 43.21564223 49.48350145 48.93856668 50.9140625 56.703125 C50.67124487 64.05847583 50.4476402 70.09403683 45.29296875 75.67578125 C38.36457712 82.10846432 33.13695615 84.13511075 23.64453125 83.890625 C9.94983782 82.20091547 -1.43000062 66.47344367 -9.87109375 56.51953125 C-12.4228325 53.64262493 -15.1022956 50.90298346 -17.8046875 48.16796875 C-18.30830811 47.65145752 -18.81192871 47.13494629 -19.33081055 46.6027832 C-23.06684708 42.85689717 -26.32238736 39.77513127 -31.6796875 39.10546875 C-35.07606877 39.53001641 -36.9470531 40.45051177 -39.6796875 42.48046875 C-41.47467724 46.07044822 -41.36864184 49.57796211 -40.6796875 53.48046875 C-39.43043443 55.46359379 -39.43043443 55.46359379 -37.68432617 57.23217773 C-37.04618988 57.92213837 -36.40805359 58.612099 -35.75057983 59.32296753 C-35.06718536 60.03494293 -34.38379089 60.74691833 -33.6796875 61.48046875 C-32.68154526 62.53139206 -32.68154526 62.53139206 -31.66323853 63.60354614 C-27.02388779 68.43562064 -22.29539393 73.18164298 -17.57543945 77.93481445 C-15.85680095 79.6700205 -14.14354576 81.41057546 -12.43579102 83.15649414 C2.5648821 98.48939209 15.88121891 110.33354765 38.3203125 110.79296875 C53.83793696 110.65604853 67.72343148 104.75544962 78.96484375 94.0859375 C91.28429108 80.45895347 94.25058586 65.60788614 93.69921875 47.828125 C93.36521705 41.75641388 92.26009342 36.82947841 89.3203125 31.48046875 C88.82273438 30.49175781 88.32515625 29.50304687 87.8125 28.484375 C80.32647368 14.53947482 69.35278104 5.67441747 54.1953125 1.04296875 C42.81279673 -1.69163976 30.90595671 -1.22998317 19.38671875 0.5546875 C17.3203125 0.48046875 17.3203125 0.48046875 15.56640625 -0.81640625 C14.3203125 -2.51953125 14.3203125 -2.51953125 13.8203125 -5.45703125 C14.3203125 -8.51953125 14.3203125 -8.51953125 16.1953125 -10.76953125 C26.77328847 -16.69319779 43.77793243 -16.28903109 55.3203125 -13.33203125 C57.00002021 -12.7651299 58.66728677 -12.16007872 60.3203125 -11.51953125 C61.2896875 -11.17921875 62.2590625 -10.83890625 63.2578125 -10.48828125 C70.86100528 -7.61768806 76.9812098 -3.55676452 83.3203125 1.48046875 C84.17109375 2.13273437 85.021875 2.785 85.8984375 3.45703125 C92.29139289 8.79824236 96.69779047 15.72478403 100.6328125 22.98046875 C100.95805908 23.57255127 101.28330566 24.16463379 101.6184082 24.7746582 C106.52787972 34.17162381 107.87840222 43.05994953 107.8203125 53.60546875 C107.81531738 54.79527344 107.81032227 55.98507813 107.80517578 57.2109375 C107.61549186 66.82856623 106.24174705 74.6780997 102.3203125 83.48046875 C101.8975 84.4653125 101.4746875 85.45015625 101.0390625 86.46484375 C93.28187319 102.43022175 78.50742627 114.05882033 62.3203125 120.48046875 C61.32515625 120.89554688 60.33 121.310625 59.3046875 121.73828125 C43.34431148 127.59041912 24.78246304 125.60588146 9.41796875 118.8203125 C-6.23628598 111.26160514 -17.99719949 97.39943393 -30.17333984 85.28198242 C-31.85414083 83.61280591 -33.53942564 81.94813318 -35.22900391 80.2878418 C-37.70161086 77.85789888 -40.16070056 75.41497539 -42.6171875 72.96875 C-43.36822754 72.23521805 -44.11926758 71.5016861 -44.89306641 70.7459259 C-50.16276883 65.45425378 -54.07697812 60.52216695 -55.2109375 52.91796875 C-55.09122694 39.74980753 -55.09122694 39.74980753 -50.6796875 34.48046875 C-45.31016872 29.57308068 -40.32983608 26.1967258 -32.9296875 26.16796875 C-31.94484375 26.15121094 -30.96 26.13445312 -29.9453125 26.1171875 C-20.56784838 27.1603743 -15.82803518 31.66046581 -9.5078125 38.234375 C-8.66297302 39.09103256 -7.81813354 39.94769012 -6.94769287 40.83030701 C-4.26284377 43.55621526 -1.5954935 46.29844517 1.0703125 49.04296875 C3.75297237 51.78835701 6.43920817 54.53006855 9.13116455 57.26634216 C10.80218648 58.96654845 12.46741193 60.67247551 14.12615967 62.38465881 C14.88084534 63.155634 15.63553101 63.92660919 16.41308594 64.72094727 C17.07290466 65.40028824 17.73272339 66.07962921 18.41253662 66.77955627 C21.26456155 69.32233126 23.47051965 70.37198456 27.2578125 70.85546875 C31.0571368 70.39024537 32.60669684 69.11655254 35.3203125 66.48046875 C36.97281478 63.17546419 37.07828603 60.02629255 36.3203125 56.48046875 C35.05473621 54.53729589 35.05473621 54.53729589 33.31567383 52.74853516 C32.67763824 52.05415344 32.03960266 51.35977173 31.38223267 50.64434814 C30.70179901 49.93026794 30.02136536 49.21618774 29.3203125 48.48046875 C28.66316254 47.78975281 28.00601257 47.09903687 27.32894897 46.38739014 C25.2004743 44.18040602 23.05184503 41.99520193 20.89453125 39.81640625 C19.71308281 38.62285019 19.71308281 38.62285019 18.50776672 37.40518188 C16.8511325 35.73480565 15.19300334 34.06591084 13.53344727 32.3984375 C11.85056169 30.70400191 10.17215982 29.0051013 8.49829102 27.30175781 C6.05689727 24.81749058 3.60233203 22.34693032 1.14453125 19.87890625 C0.40877365 19.12564056 -0.32698395 18.37237488 -1.08503723 17.59628296 C-10.60510015 8.11504198 -23.97686535 0.20166992 -37.6796875 -0.51953125 C-39.20142578 -0.61234375 -39.20142578 -0.61234375 -40.75390625 -0.70703125 C-55.98346428 -1.24316531 -69.31761294 3.85988164 -80.9296875 13.66796875 C-85.89873855 18.34472268 -89.3547792 23.55710271 -92.6796875 29.48046875 C-93.5459375 30.93453125 -93.5459375 30.93453125 -94.4296875 32.41796875 C-100.64768423 47.65206075 -100.11850228 63.0497263 -93.8671875 78.16796875 C-86.84663119 92.84490534 -75.72250572 103.03208875 -60.46484375 108.66796875 C-51.54700184 111.26952712 -39.65293469 111.98685549 -30.6796875 109.48046875 C-22.77280064 108.6445587 -22.77280064 108.6445587 -19.5546875 111.10546875 C-18.35922828 114.35028664 -18.63315922 116.2013468 -19.6796875 119.48046875 C-26.84838331 126.11755341 -39.89134634 125.02605025 -49.1484375 124.7890625 C-66.96353006 123.87943595 -82.59700556 114.8161212 -94.859375 102.24609375 C-99.02154795 97.41991655 -102.10094871 92.18884712 -104.9921875 86.54296875 C-105.31791748 85.91124756 -105.64364746 85.27952637 -105.97924805 84.62866211 C-110.84189214 74.65423455 -112.18566013 65.06706217 -112.1171875 54.04296875 C-112.13716797 52.90537109 -112.15714844 51.76777344 -112.17773438 50.59570312 C-112.16765088 32.91933279 -103.67139897 17.14721034 -91.6796875 4.48046875 C-66.84816104 -19.74329308 -27.16240759 -21.2214568 0 0 Z " fill="#FAFBFD" transform="translate(152.6796875,95.51953125)"/>
</svg>
